<?xml version="1.0" standalone="no"?>
<!DOCTYPE svg PUBLIC "-//W3C//DTD SVG 20010904//EN"
 "http://www.w3.org/TR/2001/REC-SVG-20010904/DTD/svg10.dtd">
<svg version="1.0" xmlns="http://www.w3.org/2000/svg"
 width="200.000000pt" height="200.000000pt" viewBox="0 0 200.000000 200.000000"
 preserveAspectRatio="xMidYMid meet">
<metadata>
Created by potrace 1.11, written by Peter Selinger 2001-2013
</metadata>
<g transform="translate(0.000000,200.000000) scale(0.100000,-0.100000)"
fill="#000000" stroke="none">
<path d="M1449 1779 c-23 -40 -88 -153 -145 -252 l-104 -180 146 -253 146
-254 84 0 c46 0 84 3 84 6 0 4 -43 81 -97 173 -53 91 -116 200 -140 241 -23
41 -43 80 -43 87 0 12 254 459 271 478 20 20 6 25 -76 25 l-84 0 -42 -71z"/>
<path d="M957 1273 c-68 -120 -133 -233 -143 -250 l-19 -33 -292 0 c-161 0
-293 -3 -293 -7 0 -5 17 -37 38 -73 l38 -65 299 0 300 0 143 250 144 250 -33
63 c-19 35 -39 68 -45 73 -9 7 -48 -53 -137 -208z"/>
<path d="M1441 1384 c-19 -32 -20 -38 -7 -63 26 -49 36 -52 152 -49 l109 3 3
73 3 72 -120 0 -119 0 -21 -36z"/>
<path d="M623 1269 c-29 -17 -53 -33 -53 -36 0 -3 25 -50 56 -104 l57 -100 44
3 c40 3 48 7 66 38 l20 36 -57 97 c-31 53 -63 97 -69 97 -7 0 -36 -14 -64 -31z"/>
<path d="M1086 1051 c-53 -93 -96 -172 -96 -175 0 -3 88 -6 195 -6 107 0 195
3 195 6 0 7 -191 344 -195 344 -1 0 -46 -76 -99 -169z"/>
<path d="M871 731 c-22 -38 -41 -72 -41 -75 0 -3 131 -7 291 -8 l292 -3 142
-244 c78 -135 146 -246 151 -248 13 -4 86 128 79 144 -2 8 -68 124 -146 259
l-141 244 -293 0 -293 0 -41 -69z"/>
<path d="M1247 510 c-32 -55 -56 -104 -52 -109 7 -12 115 -74 120 -70 2 2 28
48 59 101 l57 98 -21 40 c-19 37 -23 40 -63 40 l-42 0 -58 -100z"/>
</g>
</svg>
